<svg version="1" xmlns="http://www.w3.org/2000/svg" width="501.333" height="501.333" viewBox="0 0 376.000000 376.000000"><path d="M139.1 1.1C112.7 5.5 90.6 24.2 85.9 46c-4.1 19.1 5.2 39.7 23.3 51.9 10.4 7 23.9 11.5 37.8 12.5 8.1.7 7.9.2-2.2-3.4-3.1-1.2-9-4.3-13-6.9-18.9-12.3-29-32.2-26-51.2 3.1-20.1 19.1-37.6 42.3-46 3.2-1.2 5.9-2.3 5.9-2.5 0-.7-9.3-.2-14.9.7zm-.6 4.5c-17.4 8.9-28.2 21.1-33.1 37.3-1.9 6.2-1.8 19 .2 25.9 4.5 15.5 17.7 29.8 34.7 37.8 6.2 2.9 3.9 3.2-6.1.8-9.8-2.4-23.8-9.4-30.3-15.3-17.1-15.3-22-36.9-12.7-56.1 4.6-9.6 16.9-21.6 27.1-26.4 7.2-3.4 20.5-7.4 25.2-7.5 1.1-.1-1.1 1.5-5 3.5zM185.5 84.3c-6.5 21.5-12.6 41.1-13.6 43.3-.9 2.3-2.8 8.6-4.2 14-1.4 5.5-14.7 50.2-29.6 99.5-14.9 49.3-27.1 89.9-27.1 90.3 0 .3 15.8.6 35 .6h35v12.3c0 8.2.4 12.7 1.2 13.5.8.8 5.1 1.2 12.8 1.2 7.7 0 12-.4 12.8-1.2.8-.8 1.2-5.3 1.2-13.5V332h75.2l-.6-2.6c-1-3.8-85.7-283.8-86-284.1-.1-.1-5.5 17.4-12.1 39zm22.7 29.3c6.9 2.7 7.3 3.4 5.9 9.7l-1.2 5.4-4.6-2.4c-9-4.5-19-2.3-24.2 5.3-5.9 8.6-7.7 25.6-4.1 39.6 2.3 9 4 12 8.6 14.8 4.1 2.6 16.2 2.9 21.7.6l3.5-1.4 1.1 4.3c1.6 6.4 1.4 7.1-2.1 8.8-10.4 4.7-23.2 4.1-30.7-1.3-13.7-10-18.7-37.8-11.1-62.2 2.8-9.3 7.4-15.6 14-19.5 4.7-2.9 6.3-3.3 12.2-3.3 3.9 0 8.6.7 11 1.6zM189 257v49h53v12h-68V208h15v49z"/></svg>